<?xml version="1.0" standalone="no"?>
<!DOCTYPE svg PUBLIC "-//W3C//DTD SVG 20010904//EN"
 "http://www.w3.org/TR/2001/REC-SVG-20010904/DTD/svg10.dtd">
<svg version="1.0" xmlns="http://www.w3.org/2000/svg"
 width="1040.000000pt" height="1040.000000pt" viewBox="0 0 1040.000000 1040.000000"
 preserveAspectRatio="xMidYMid meet">
<metadata>
Created by potrace 1.16, written by Peter Selinger 2001-2019
</metadata>
<g transform="translate(0.000000,1040.000000) scale(0.100000,-0.100000)"
fill="#000000" stroke="none">
<path d="M3853 7938 c-6 -7 -12 -22 -15 -33 -3 -11 -332 -856 -732 -1878 -399
-1022 -726 -1864 -726 -1872 0 -7 8 -14 18 -16 9 -2 513 -3 1120 -1 967 2
1102 4 1102 17 0 13 -131 15 -1081 15 -653 0 -1079 4 -1077 9 70 195 1415
3617 1419 3613 3 -4 329 -828 723 -1832 395 -1004 721 -1829 725 -1833 12 -12
61 3 61 18 0 8 -329 850 -732 1872 -402 1022 -733 1872 -736 1890 -3 21 -11
33 -25 37 -31 8 -33 8 -44 -6z"/>
<path d="M3822 5457 c-73 -259 -132 -475 -132 -479 0 -5 22 -8 50 -8 l49 0 15
53 c9 28 67 237 131 462 64 226 118 418 121 428 5 15 -2 17 -48 17 l-53 0
-133 -473z"/>
<path d="M3327 5632 l-298 -126 3 -60 3 -59 300 -128 c165 -71 303 -129 308
-129 4 0 7 28 5 62 l-3 61 -225 94 c-124 51 -229 94 -234 96 -4 1 97 46 225
98 l234 95 3 62 c2 46 0 62 -10 61 -7 -1 -147 -58 -311 -127z"/>
<path d="M4090 5702 l0 -59 53 -22 c28 -12 131 -54 227 -93 96 -39 179 -74
183 -78 4 -4 -98 -51 -228 -105 l-235 -97 0 -60 c0 -57 1 -60 23 -54 12 3 153
61 312 130 l290 125 3 58 3 58 -296 123 c-162 68 -304 126 -315 129 -18 5 -20
0 -20 -55z"/>
</g>
</svg>
