<svg xmlns="http://www.w3.org/2000/svg" width="512" height="512"><path d="M440.607 31.642H16.759C7.518 31.642 0 39.16 0 48.401v103.8c0 9.241 7.518 16.759 16.759 16.759h423.848c9.241 0 16.759-7.518 16.759-16.759v-103.8c.001-9.241-7.517-16.759-16.759-16.759zM112.45 152.741H16.76a.541.541 0 0 1-.541-.541V48.4c0-.298.242-.541.541-.541h95.69v104.882zm328.698-.54a.541.541 0 0 1-.541.541H128.668V47.86h311.939c.297 0 .541.242.541.541v103.8z" fill="#02203c"/><path d="M302.208 74.892H155.159a8.109 8.109 0 1 0 0 16.218h147.049a8.109 8.109 0 1 0 0-16.218zm103.8 34.599h-173a8.11 8.11 0 0 0 0 16.218h173a8.109 8.109 0 1 0 0-16.218zm-207.597 0h-43.252a8.109 8.109 0 1 0 0 16.218h43.252a8.109 8.109 0 1 0 0-16.218zM64.334 57.592c-16.396 0-29.734 13.339-29.734 29.734a8.109 8.109 0 1 0 16.218 0c0-7.453 6.063-13.516 13.516-13.516S77.85 79.874 77.85 87.326s-6.063 13.516-13.516 13.516a8.109 8.109 0 1 0 0 16.218c16.396 0 29.734-13.338 29.734-29.734S80.73 57.592 64.334 57.592zm.087 69.199h-.086c-4.479 0-8.066 3.631-8.066 8.109s3.674 8.109 8.153 8.109a8.109 8.109 0 1 0-.001-16.218zm237.787 103.8H155.159a8.109 8.109 0 1 0 0 16.218h147.049a8.109 8.109 0 1 0 0-16.218zm77.85 34.6h-147.05a8.109 8.109 0 1 0 0 16.218h147.05a8.109 8.109 0 1 0 0-16.218zm-181.647 0h-43.252a8.109 8.109 0 1 0 0 16.218h43.252a8.109 8.109 0 1 0 0-16.218zm-134.077-51.9c-16.396 0-29.734 13.338-29.734 29.734a8.109 8.109 0 1 0 16.218 0c0-7.453 6.063-13.516 13.516-13.516s13.516 6.063 13.516 13.516-6.063 13.516-13.516 13.516a8.109 8.109 0 1 0 0 16.218c16.396 0 29.734-13.338 29.734-29.734s-13.338-29.734-29.734-29.734zm.087 69.2h-.086c-4.479 0-8.066 3.631-8.066 8.109s3.674 8.109 8.153 8.109a8.109 8.109 0 1 0-.001-16.218zM302.208 386.29H155.159a8.109 8.109 0 1 0 0 16.218h147.049a8.109 8.109 0 1 0 0-16.218zm86.5 34.6h-155.7a8.109 8.109 0 1 0 0 16.218h155.7a8.109 8.109 0 1 0 0-16.218zm-190.297 0h-43.252a8.109 8.109 0 1 0 0 16.218h43.252a8.109 8.109 0 1 0 0-16.218zm-134.077-51.9c-16.396 0-29.734 13.338-29.734 29.734a8.109 8.109 0 1 0 16.218 0c0-7.453 6.063-13.516 13.516-13.516s13.516 6.063 13.516 13.516-6.063 13.516-13.516 13.516a8.109 8.109 0 1 0 0 16.218c16.396 0 29.734-13.338 29.734-29.734 0-16.395-13.338-29.734-29.734-29.734zm.087 69.2h-.086c-4.479 0-8.066 3.631-8.066 8.109s3.674 8.109 8.153 8.109a8.109 8.109 0 1 0-.001-16.218z" fill="#02203c"/><path d="M511.655 364.875a8.11 8.11 0 0 0-2.03-8.075l-52.259-52.259V204.1c0-9.241-7.518-16.759-16.759-16.759H16.759C7.518 187.341 0 194.859 0 204.1v103.8c0 9.241 7.518 16.759 16.759 16.759h389.789v18.381H16.759C7.518 343.04 0 350.558 0 359.8v103.8c0 9.241 7.518 16.759 16.759 16.759h423.848c9.241 0 16.759-7.518 16.759-16.759v-24.851l7.564 18.262a8.107 8.107 0 0 0 10.595 4.389l29.097-12.053a8.11 8.11 0 0 0 4.389-10.595l-26.363-63.644 22.85-4.625a8.11 8.11 0 0 0 6.157-5.608zM112.45 308.441H16.76a.541.541 0 0 1-.541-.541V204.1c0-.298.242-.541.541-.541h95.69v104.882zm16.218 0V203.56h311.939c.298 0 .541.242.541.541v84.223l-20.757-20.757a8.108 8.108 0 0 0-13.843 5.734v35.141h-277.88zM112.45 464.14H16.76a.541.541 0 0 1-.541-.541V359.8c0-.298.242-.541.541-.541h95.69V464.14zm328.698-.541a.541.541 0 0 1-.541.541H128.668V359.259h277.88v40.018a8.11 8.11 0 0 0 12.555 6.783l19.445-12.745 2.6 6.278v64.006zm28.632-102.435a8.113 8.113 0 0 0-5.884 11.053l27.028 65.25-14.112 5.846-27.028-65.25a8.105 8.105 0 0 0-11.936-3.679l-15.079 9.884v-91.389l64.706 64.706-17.695 3.579z" fill="#02203c"/></svg>