<svg xmlns="http://www.w3.org/2000/svg" viewBox="0 0 511 511" width="512" height="512"><g fill="#02203c"><path d="M255.492 303c26.191 0 47.5-21.309 47.5-47.5s-21.309-47.5-47.5-47.5-47.5 21.309-47.5 47.5 21.309 47.5 47.5 47.5zm0-80c17.92 0 32.5 14.58 32.5 32.5s-14.58 32.5-32.5 32.5-32.5-14.58-32.5-32.5 14.58-32.5 32.5-32.5zm-160.5-23.5c0-17.369-14.131-31.5-31.5-31.5s-31.5 14.131-31.5 31.5 14.131 31.5 31.5 31.5 31.5-14.131 31.5-31.5zm-48 0c0-9.098 7.402-16.5 16.5-16.5s16.5 7.402 16.5 16.5-7.402 16.5-16.5 16.5-16.5-7.402-16.5-16.5zm344.5-48.5c17.369 0 31.5-14.131 31.5-31.5S408.861 88 391.492 88s-31.5 14.131-31.5 31.5 14.131 31.5 31.5 31.5zm0-48c9.098 0 16.5 7.402 16.5 16.5s-7.402 16.5-16.5 16.5-16.5-7.402-16.5-16.5 7.402-16.5 16.5-16.5zm-152.5 352.5c0-17.369-14.131-31.5-31.5-31.5s-31.5 14.131-31.5 31.5 14.131 31.5 31.5 31.5 31.5-14.131 31.5-31.5zm-31.5 16.5c-9.098 0-16.5-7.402-16.5-16.5s7.402-16.5 16.5-16.5 16.5 7.402 16.5 16.5-7.402 16.5-16.5 16.5zm114.825-79.81a7.5 7.5 0 0 0-8.993 5.625C299.368 458.377 277.208 496 255.492 496c-5.092 0-10.309-2.128-15.507-6.324a7.5 7.5 0 1 0-9.423 11.671c7.934 6.406 16.321 9.653 24.93 9.653 15.925 0 30.593-10.757 43.597-31.971 11.44-18.662 21.417-45.581 28.852-77.846a7.501 7.501 0 0 0-5.624-8.993z"/><path d="M475.879 339.897c-6.383-15.283-18.048-32.353-34.671-50.736-10.056-11.121-21.643-22.404-34.49-33.655 21.132-18.48 38.52-36.775 51.318-54.099 22.493-30.448 28.968-55.918 18.726-73.657-6.407-11.099-18.576-18.049-36.167-20.66a7.5 7.5 0 0 0-2.202 14.838c12.836 1.905 21.375 6.387 25.379 13.322 10.641 18.43-10.501 60.159-68.591 110.443-16.335-13.507-34.398-26.886-53.767-39.8-1.498-23.213-4.051-45.53-7.576-66.416a482.004 482.004 0 0 1 14.674-4.814 7.5 7.5 0 0 0-4.435-14.329 491 491 0 0 0-12.969 4.233c-3.322-16.765-7.302-32.453-11.908-46.732-7.609-23.588-16.56-42.225-26.603-55.394C281.239 7.55 268.755 0 255.492 0c-15.541 0-29.902 10.263-42.684 30.504-11.226 17.776-21.118 43.511-28.608 74.421a7.5 7.5 0 0 0 14.578 3.532C212.746 50.811 234.478 15 255.492 15c17.33 0 35.809 25.211 49.431 67.44 4.634 14.364 8.618 30.217 11.909 47.215-19.937 7.419-40.537 16.364-61.326 26.637-43.247-21.382-85.438-36.939-122.022-44.796-24.232-5.204-44.847-6.771-61.274-4.658-18.574 2.39-31.354 9.425-37.986 20.912-5.349 9.264-6.181 20.64-2.473 33.81a7.5 7.5 0 0 0 14.439-4.065c-2.571-9.13-2.226-16.614 1.024-22.244 8.665-15.008 39.738-18.406 83.12-9.088 32.582 6.997 69.867 20.361 108.422 38.674a781.15 781.15 0 0 0-43.171 24.474 7.5 7.5 0 1 0 7.808 12.808 778.75 778.75 0 0 1 15.849-9.405 758.854 758.854 0 0 1 36.267-19.643 764.066 764.066 0 0 1 36.233 19.643 763.677 763.677 0 0 1 35.144 21.567 763.437 763.437 0 0 1 1.106 41.22c0 32.944-2.068 64.904-6.146 94.993a7.5 7.5 0 0 0 7.442 8.508 7.503 7.503 0 0 0 7.423-6.494c4.168-30.754 6.282-63.392 6.282-97.007 0-10.385-.204-20.676-.604-30.831 14.633 10.092 28.407 20.424 41.12 30.829-8.748 7.142-18.208 14.429-28.415 21.826a7.5 7.5 0 0 0 4.408 13.573 7.466 7.466 0 0 0 4.395-1.428c11.061-8.017 21.503-16.089 31.269-24.153 13.068 11.344 24.799 22.716 34.917 33.905 29.76 32.912 42.354 61.521 33.689 76.528s-39.738 18.404-83.12 9.088c-32.578-6.997-69.86-20.359-108.411-38.669a783.535 783.535 0 0 0 36.095-20.223 7.5 7.5 0 0 0-7.672-12.89 773.585 773.585 0 0 1-8.921 5.23 763.457 763.457 0 0 1-36.25 19.652 763.457 763.457 0 0 1-36.25-19.652 762.555 762.555 0 0 1-35.149-21.579 764.684 764.684 0 0 1-1.101-41.208c0-32.944 2.068-64.904 6.146-94.993a7.5 7.5 0 0 0-14.864-2.014c-4.168 30.754-6.282 63.392-6.282 97.007 0 10.388.204 20.671.601 30.816-14.587-10.065-28.347-20.388-41.097-30.83 8.743-7.137 18.197-14.419 28.395-21.81a7.5 7.5 0 0 0 1.671-10.474 7.5 7.5 0 0 0-10.474-1.671c-11.05 8.009-21.482 16.073-31.24 24.129-5.266-4.573-10.354-9.158-15.197-13.747A7.5 7.5 0 1 0 90.334 242.8a482.895 482.895 0 0 0 13.947 12.681c-21.138 18.484-38.531 36.783-51.332 54.111-22.493 30.448-28.968 55.918-18.727 73.658 6.631 11.486 19.412 18.522 37.986 20.912 4.724.608 9.795.911 15.198.911 13.385 0 28.813-1.862 46.076-5.569 14.668-3.15 30.242-7.547 46.419-13.052 1.558 7.846 3.25 15.496 5.101 22.883a7.503 7.503 0 0 0 7.269 5.679 7.5 7.5 0 0 0 7.281-9.325 462.87 462.87 0 0 1-5.375-24.324c19.854-7.391 40.459-16.34 61.315-26.65 43.243 21.379 85.429 36.934 122.009 44.79 17.265 3.708 32.69 5.569 46.076 5.569 5.402 0 10.475-.304 15.198-.911 18.574-2.39 31.354-9.426 37.986-20.912 6.632-11.487 6.335-26.073-.882-43.354zM299.242 179.723a782.002 782.002 0 0 0-26.975-14.878c15.999-7.593 31.822-14.355 47.24-20.178 2.652 16.203 4.71 33.287 6.133 50.994a781.986 781.986 0 0 0-26.398-15.938zM130.333 384.838c-43.382 9.317-74.455 5.919-83.12-9.088-10.641-18.43 10.503-60.162 68.598-110.449 16.394 13.562 34.443 26.929 53.762 39.809 1.493 23.183 4.042 45.475 7.591 66.438-16.361 5.647-32.079 10.122-46.831 13.29zm61.172-18.479c-2.672-16.266-4.742-33.336-6.164-51.024a783.538 783.538 0 0 0 26.401 15.942 783.535 783.535 0 0 0 27.002 14.892c-16.05 7.623-31.877 14.384-47.239 20.19z"/><path d="M255.492 255a.5.5 0 0 1 .5.5 7.5 7.5 0 0 0 15 0c0-8.547-6.953-15.5-15.5-15.5a7.5 7.5 0 0 0 0 15z"/></g></svg>